<?xml version="1.0" encoding="UTF-8" standalone="no"?>
<svg
   xmlns:dc="http://purl.org/dc/elements/1.1/"
   xmlns:cc="http://creativecommons.org/ns#"
   xmlns:rdf="http://www.w3.org/1999/02/22-rdf-syntax-ns#"
   xmlns:svg="http://www.w3.org/2000/svg"
   xmlns="http://www.w3.org/2000/svg"
   width="91.541321mm"
   height="82.299225mm"
   viewBox="0 0 91.541321 82.299225"
   version="1.1"
   id="svg8">
  <defs
     id="defs2" />
  <metadata
     id="metadata5">
    <rdf:RDF>
      <cc:Work
         rdf:about="">
        <dc:format>image/svg+xml</dc:format>
        <dc:type
           rdf:resource="http://purl.org/dc/dcmitype/StillImage" />
        <dc:title></dc:title>
      </cc:Work>
    </rdf:RDF>
  </metadata>
  <g
     id="layer2"
     style="display:inline;opacity:1"
     transform="translate(-165.42912,-39.13215)">
    <g
       id="g908"
       transform="matrix(2.0532394,0,0,2.0532394,-327.11086,-195.40841)"
       style="fill:#999999">
      <path
         id="path894"
         style="font-style:normal;font-variant:normal;font-weight:normal;font-stretch:normal;font-size:10.4768px;line-height:1.25;font-family:'CHUTEROLK Free';-inkscape-font-specification:'CHUTEROLK Free, Normal';font-variant-ligatures:normal;font-variant-caps:normal;font-variant-numeric:normal;font-variant-east-asian:normal;fill:#999999;fill-opacity:1;stroke:none;stroke-width:0.261919"
         d="m 282.17376,146.97862 -1.37253,7.3334 h 0.92191 l 0.91157,-4.89272 0.92191,4.89272 h 0.91157 l -1.37253,-7.3334 z" />
      <path
         d="m 243.09024,152.11202 v 0.59718 q 0,0.32478 -0.12572,0.61813 -0.12572,0.29335 -0.34573,0.51336 -0.20954,0.22002 -0.50289,0.34574 -0.29335,0.12572 -0.62861,0.12572 -0.32478,0 -0.61813,-0.12572 -0.29335,-0.12572 -0.51336,-0.34574 -0.22002,-0.22001 -0.34574,-0.51336 -0.12572,-0.29335 -0.12572,-0.61813 v -4.12786 q 0,-0.33526 0.12572,-0.61813 0.12572,-0.29335 0.34574,-0.51336 0.22001,-0.22002 0.51336,-0.34574 0.29335,-0.12572 0.61813,-0.12572 0.33526,0 0.62861,0.12572 0.29335,0.12572 0.50289,0.34574 0.22001,0.22001 0.34573,0.51336 0.12572,0.28287 0.12572,0.61813 v 0.59718 h -0.91148 v -0.59718 q 0,-0.28287 -0.20954,-0.48193 -0.19906,-0.20954 -0.48193,-0.20954 -0.28287,0 -0.48193,0.20954 -0.19906,0.19906 -0.19906,0.48193 v 4.12786 q 0,0.28287 0.19906,0.48193 0.19906,0.19906 0.48193,0.19906 0.28287,0 0.48193,-0.19906 0.20954,-0.19906 0.20954,-0.48193 v -0.59718 z"
         style="font-style:normal;font-variant:normal;font-weight:normal;font-stretch:normal;font-size:10.4768px;line-height:1.25;font-family:'CHUTEROLK Free';-inkscape-font-specification:'CHUTEROLK Free, Normal';font-variant-ligatures:normal;font-variant-caps:normal;font-variant-numeric:normal;font-variant-east-asian:normal;fill:#999999;fill-opacity:1;stroke:none;stroke-width:0.261919"
         id="path854" />
      <path
         d="m 244.81891,151.37865 v 2.9335 h -0.92196 v -7.33376 h 1.60295 q 0.33526,0 0.62861,0.12572 0.29335,0.12572 0.50288,0.34574 0.22002,0.22001 0.34574,0.51336 0.12572,0.28287 0.12572,0.61813 v 1.19435 q 0,0.46098 -0.23049,0.83815 -0.23049,0.36669 -0.60765,0.57622 l 1.29912,3.12209 h -0.91148 l -1.22579,-2.9335 z m 0,-0.92196 h 0.68099 q 0.28287,0 0.48193,-0.19906 0.20954,-0.19906 0.20954,-0.48194 v -1.19435 q 0,-0.28287 -0.20954,-0.48193 -0.19906,-0.20954 -0.48193,-0.20954 h -0.68099 z"
         style="font-style:normal;font-variant:normal;font-weight:normal;font-stretch:normal;font-size:10.4768px;line-height:1.25;font-family:'CHUTEROLK Free';-inkscape-font-specification:'CHUTEROLK Free, Normal';font-variant-ligatures:normal;font-variant-caps:normal;font-variant-numeric:normal;font-variant-east-asian:normal;fill:#999999;fill-opacity:1;stroke:none;stroke-width:0.261919"
         id="path856" />
      <path
         d="m 249.72203,154.31215 h -0.92196 v -3.66688 l -1.37246,-3.66688 h 0.92196 l 0.91148,2.44109 0.92196,-2.44109 h 0.91148 l -1.37246,3.66688 z"
         style="font-style:normal;font-variant:normal;font-weight:normal;font-stretch:normal;font-size:10.4768px;line-height:1.25;font-family:'CHUTEROLK Free';-inkscape-font-specification:'CHUTEROLK Free, Normal';font-variant-ligatures:normal;font-variant-caps:normal;font-variant-numeric:normal;font-variant-east-asian:normal;fill:#999999;fill-opacity:1;stroke:none;stroke-width:0.261919"
         id="path858" />
      <path
         d="m 253.52509,148.08893 q -0.20953,-0.19906 -0.4924,-0.19906 -0.28288,0 -0.48194,0.20954 -0.19906,0.19906 -0.19906,0.48193 v 0.80671 q 0,0.1362 0.0733,0.25145 0.0838,0.11524 0.19906,0.20953 0.11524,0.0838 0.24097,0.14668 0.12572,0.0524 0.22001,0.0733 0.22001,0.0524 0.49241,0.16762 0.2724,0.10477 0.50289,0.30383 0.24096,0.18858 0.39811,0.47146 0.15716,0.27239 0.15716,0.66004 v 1.0372 q 0,0.32478 -0.12573,0.61813 -0.12572,0.29335 -0.34573,0.51336 -0.20954,0.22002 -0.50289,0.34574 -0.29335,0.12572 -0.6286,0.12572 -0.32479,0 -0.61814,-0.12572 -0.29335,-0.12572 -0.51336,-0.34574 -0.22001,-0.22001 -0.34573,-0.51336 -0.12573,-0.29335 -0.12573,-0.61813 v -0.59718 h 0.92196 v 0.59718 q 0,0.28287 0.19906,0.48193 0.19906,0.19906 0.48194,0.19906 0.28287,0 0.48193,-0.19906 0.20953,-0.19906 0.20953,-0.48193 v -1.0372 q 0,-0.26192 -0.23049,-0.42955 -0.23049,-0.17811 -0.50288,-0.25145 -0.76481,-0.20953 -1.16293,-0.61813 -0.39812,-0.41907 -0.39812,-0.98482 v -0.80671 q 0,-0.33526 0.12573,-0.61813 0.12572,-0.29335 0.34573,-0.51336 0.22001,-0.22002 0.51336,-0.34574 0.29335,-0.12572 0.61814,-0.12572 0.33525,0 0.6286,0.12572 0.29335,0.12572 0.50289,0.34574 0.22001,0.22001 0.34573,0.51336 0.12573,0.28287 0.12573,0.61813 v 0.59718 h -0.91149 v -0.59718 q 0,-0.28287 -0.19906,-0.49241 z"
         style="font-style:normal;font-variant:normal;font-weight:normal;font-stretch:normal;font-size:10.4768px;line-height:1.25;font-family:'CHUTEROLK Free';-inkscape-font-specification:'CHUTEROLK Free, Normal';font-variant-ligatures:normal;font-variant-caps:normal;font-variant-numeric:normal;font-variant-east-asian:normal;fill:#999999;fill-opacity:1;stroke:none;stroke-width:0.261919"
         id="path860" />
      <path
         d="m 258.25013,147.88987 h -1.14198 v 6.42228 h -0.92195 v -6.42228 h -1.14198 v -0.91148 h 3.20591 z"
         style="font-style:normal;font-variant:normal;font-weight:normal;font-stretch:normal;font-size:10.4768px;line-height:1.25;font-family:'CHUTEROLK Free';-inkscape-font-specification:'CHUTEROLK Free, Normal';font-variant-ligatures:normal;font-variant-caps:normal;font-variant-numeric:normal;font-variant-east-asian:normal;fill:#999999;fill-opacity:1;stroke:none;stroke-width:0.261919"
         id="path862" />
      <path
         id="path864"
         style="font-style:normal;font-variant:normal;font-weight:normal;font-stretch:normal;font-size:10.4768px;line-height:1.25;font-family:'CHUTEROLK Free';-inkscape-font-specification:'CHUTEROLK Free, Normal';font-variant-ligatures:normal;font-variant-caps:normal;font-variant-numeric:normal;font-variant-east-asian:normal;fill:#999999;fill-opacity:1;stroke:none;stroke-width:0.98993"
         d="m 761.45703,490.10938 -5.1875,27.71679 h 3.48438 l 3.44531,-18.49219 3.48437,18.49219 h 3.44532 l -5.1875,-27.71679 z"
         transform="matrix(0.26458333,0,0,0.26458333,58.007237,17.303852)" />
      <path
         d="m 265.17527,154.31215 h -2.7554 v -7.33376 h 0.92196 v 6.4118 h 1.83344 z"
         style="font-style:normal;font-variant:normal;font-weight:normal;font-stretch:normal;font-size:10.4768px;line-height:1.25;font-family:'CHUTEROLK Free';-inkscape-font-specification:'CHUTEROLK Free, Normal';font-variant-ligatures:normal;font-variant-caps:normal;font-variant-numeric:normal;font-variant-east-asian:normal;fill:#999999;fill-opacity:1;stroke:none;stroke-width:0.261919"
         id="path866" />
      <path
         d="m 269.37644,154.31215 h -1.60295 v -7.33376 h 1.60295 q 0.33526,0 0.62861,0.12572 0.29335,0.12572 0.50288,0.34574 0.22002,0.22001 0.34574,0.51336 0.12572,0.28287 0.12572,0.61813 v 4.12786 q 0,0.32478 -0.12572,0.61813 -0.12572,0.29335 -0.34574,0.51336 -0.20953,0.22002 -0.50288,0.34574 -0.29335,0.12572 -0.62861,0.12572 z m 0,-0.92196 q 0.28287,0 0.48193,-0.19906 0.20954,-0.19906 0.20954,-0.48193 v -4.12786 q 0,-0.28287 -0.20954,-0.48193 -0.19906,-0.20954 -0.48193,-0.20954 h -0.68099 v 5.50032 z"
         style="font-style:normal;font-variant:normal;font-weight:normal;font-stretch:normal;font-size:10.4768px;line-height:1.25;font-family:'CHUTEROLK Free';-inkscape-font-specification:'CHUTEROLK Free, Normal';font-variant-ligatures:normal;font-variant-caps:normal;font-variant-numeric:normal;font-variant-east-asian:normal;fill:#999999;fill-opacity:1;stroke:none;stroke-width:0.261919"
         id="path868" />
      <path
         d="m 272.88616,153.39019 h 1.83344 v 0.92196 h -2.7554 v -7.33376 h 2.7554 v 0.91148 h -1.83344 v 2.56682 h 1.64486 v 0.92196 h -1.64486 z"
         style="font-style:normal;font-variant:normal;font-weight:normal;font-stretch:normal;font-size:10.4768px;line-height:1.25;font-family:'CHUTEROLK Free';-inkscape-font-specification:'CHUTEROLK Free, Normal';font-variant-ligatures:normal;font-variant-caps:normal;font-variant-numeric:normal;font-variant-east-asian:normal;fill:#999999;fill-opacity:1;stroke:none;stroke-width:0.261919"
         id="path870" />
      <path
         d="m 278.26076,154.31215 h -2.7554 v -7.33376 h 0.92196 v 6.4118 h 1.83344 z"
         style="font-style:normal;font-variant:normal;font-weight:normal;font-stretch:normal;font-size:10.4768px;line-height:1.25;font-family:'CHUTEROLK Free';-inkscape-font-specification:'CHUTEROLK Free, Normal';font-variant-ligatures:normal;font-variant-caps:normal;font-variant-numeric:normal;font-variant-east-asian:normal;fill:#999999;fill-opacity:1;stroke:none;stroke-width:0.261919"
         id="path872" />
      <path
         d="m 280.95327,147.88987 h -1.14197 v 6.42228 h -0.92196 v -6.42228 h -1.14197 v -0.91148 h 3.2059 z"
         style="font-style:normal;font-variant:normal;font-weight:normal;font-stretch:normal;font-size:10.4768px;line-height:1.25;font-family:'CHUTEROLK Free';-inkscape-font-specification:'CHUTEROLK Free, Normal';font-variant-ligatures:normal;font-variant-caps:normal;font-variant-numeric:normal;font-variant-east-asian:normal;fill:#999999;fill-opacity:1;stroke:none;stroke-width:0.261919"
         id="path874" />
    </g>
    <g
       id="g935"
       transform="matrix(1.3950566,0,0,1.3610128,-98.434392,-25.101957)">
      <path
         style="fill:#e9e9ea;fill-opacity:1;stroke-width:0.213733"
         id="path987"
         d="m 241.32443,86.301801 -45.1557,0 22.57785,-39.105987 z" />
      <path
         id="path989"
         style="fill:#41c5e4;fill-opacity:1;stroke-width:0.213733"
         d="m 225.1555,51.012798 -2.1029,3.64174 20.47542,35.464228 h 4.20519 z" />
      <path
         id="path991"
         style="color:#000000;font-style:normal;font-variant:normal;font-weight:normal;font-stretch:normal;font-size:medium;line-height:normal;font-family:sans-serif;font-variant-ligatures:normal;font-variant-position:normal;font-variant-caps:normal;font-variant-numeric:normal;font-variant-alternates:normal;font-variant-east-asian:normal;font-feature-settings:normal;font-variation-settings:normal;text-indent:0;text-align:start;text-decoration:none;text-decoration-line:none;text-decoration-style:solid;text-decoration-color:#000000;letter-spacing:normal;word-spacing:normal;text-transform:none;writing-mode:lr-tb;direction:ltr;text-orientation:mixed;dominant-baseline:auto;baseline-shift:baseline;text-anchor:start;white-space:normal;shape-padding:0;shape-margin:0;inline-size:0;clip-rule:nonzero;display:inline;overflow:visible;visibility:visible;isolation:auto;mix-blend-mode:normal;color-interpolation:sRGB;color-interpolation-filters:linearRGB;solid-color:#000000;solid-opacity:1;vector-effect:none;fill:#f06a22;fill-opacity:1;fill-rule:nonzero;stroke:none;stroke-width:1.19161;stroke-linecap:butt;stroke-linejoin:miter;stroke-miterlimit:4;stroke-dasharray:none;stroke-dashoffset:0;stroke-opacity:1;color-rendering:auto;image-rendering:auto;shape-rendering:auto;text-rendering:auto;enable-background:accumulate;stop-color:#000000"
         d="m 221.56183,57.31898 -18.92366,32.776328 h 37.84793 l -0.36578,-0.63056 z m 0,1.682936 0.0696,0.120693 12.89266,30.132767 h -30.43144 z" />
    </g>
  </g>
</svg>
